<?xml version="1.0" encoding="utf-8"?>
<svg viewBox="0 0 24 24" width="24px" height="24px" xmlns="http://www.w3.org/2000/svg">
  <path d="M 2.182 3 L 21.818 3 C 23.024 3 24 4.15 24 5.572 L 24 18.428 C 24 19.849 23.024 21 21.818 21 L 2.182 21 C 0.976 21 0 19.849 0 18.428 L 0 5.572 C 0 4.15 0.976 3 2.182 3 Z M 8.019 12.415 C 8.361 12.424 8.638 12.513 8.852 12.683 C 9.067 12.853 9.209 13.084 9.28 13.377 C 9.35 13.669 9.388 14.2 9.393 14.966 C 9.397 15.731 9.427 16.281 9.482 16.617 C 9.538 16.953 9.658 17.23 9.843 17.449 C 10.03 17.668 10.263 17.826 10.547 17.924 C 10.742 17.992 11.056 18.028 11.489 18.028 L 11.86 18.028 L 11.86 17.026 L 11.654 17.026 C 11.234 17.026 10.953 16.968 10.809 16.854 C 10.666 16.737 10.576 16.536 10.54 16.248 C 10.523 16.09 10.514 15.598 10.514 14.768 C 10.514 13.853 10.404 13.196 10.185 12.795 C 9.967 12.393 9.614 12.094 9.128 11.898 C 9.539 11.707 9.84 11.488 10.032 11.242 C 10.225 10.994 10.36 10.645 10.441 10.189 C 10.49 9.897 10.514 9.192 10.514 8.078 C 10.514 7.526 10.589 7.17 10.739 7.011 C 10.889 6.85 11.195 6.771 11.654 6.771 L 11.86 6.771 L 11.86 5.771 L 11.489 5.771 C 11.109 5.771 10.835 5.791 10.667 5.833 C 10.419 5.902 10.215 6.001 10.056 6.129 C 9.897 6.259 9.764 6.433 9.656 6.65 C 9.547 6.866 9.472 7.154 9.433 7.511 C 9.41 7.737 9.397 8.203 9.393 8.914 C 9.388 9.623 9.35 10.126 9.28 10.419 C 9.209 10.711 9.067 10.943 8.852 11.112 C 8.638 11.278 8.361 11.368 8.019 11.375 L 8.019 12.415 Z M 15.499 11.107 C 15.285 10.938 15.142 10.707 15.071 10.415 C 15 10.124 14.963 9.595 14.957 8.831 C 14.953 8.065 14.924 7.515 14.869 7.178 C 14.813 6.843 14.692 6.565 14.507 6.344 C 14.321 6.123 14.087 5.966 13.804 5.872 C 13.609 5.804 13.295 5.771 12.862 5.771 L 12.49 5.771 L 12.49 6.771 L 12.696 6.771 C 13.116 6.771 13.399 6.828 13.541 6.94 C 13.685 7.053 13.773 7.252 13.804 7.536 C 13.826 7.698 13.837 8.193 13.837 9.022 C 13.837 9.936 13.941 10.585 14.149 10.971 C 14.356 11.356 14.714 11.665 15.223 11.898 C 14.834 12.056 14.534 12.276 14.321 12.558 C 14.109 12.841 13.967 13.219 13.897 13.689 C 13.857 13.975 13.837 14.65 13.837 15.712 C 13.837 16.268 13.762 16.628 13.611 16.787 C 13.461 16.946 13.156 17.026 12.696 17.026 L 12.49 17.026 L 12.49 18.028 L 12.862 18.028 C 13.241 18.028 13.516 18.003 13.684 17.957 C 13.932 17.889 14.136 17.79 14.295 17.66 C 14.453 17.529 14.588 17.357 14.697 17.144 C 14.805 16.928 14.878 16.639 14.918 16.28 C 14.94 16.054 14.953 15.586 14.957 14.876 C 14.963 14.167 15 13.666 15.071 13.375 C 15.142 13.082 15.285 12.853 15.499 12.683 C 15.713 12.513 15.991 12.424 16.331 12.415 L 16.331 11.375 C 15.991 11.368 15.713 11.277 15.499 11.107 Z" style="stroke: rgb(0, 0, 0); stroke-width: 0px; paint-order: stroke; fill: rgb(255, 255, 255);"/>
</svg>